<svg width="238" height="276" viewBox="0 0 238 276" fill="none" xmlns="http://www.w3.org/2000/svg">
<path d="M211.314 81.6277L215.587 77.3408C221.752 71.1663 222.878 62.1925 218.086 57.4017C213.294 52.6109 204.334 53.7227 198.176 59.8971L193.871 64.208C176.746 50.2779 156.074 41.4187 134.187 38.6304V30.9603H140.305C149.019 30.9603 156.151 23.994 156.151 15.4842C156.151 6.97427 149.019 0 140.305 0H97.7208C89.0075 0 81.8755 6.96627 81.8755 15.4842C81.8755 24.002 89.0075 30.9603 97.7208 30.9603H103.839V38.6304C77.6967 41.9933 53.4093 53.9522 34.7872 72.6308C16.1652 91.3093 4.26218 115.651 0.945904 141.835C-2.37038 168.02 3.08771 194.566 16.4638 217.309C29.8399 240.052 50.377 257.704 74.8528 267.496C99.3286 277.288 126.358 278.665 151.7 271.412C177.042 264.16 199.263 248.687 214.875 227.421C230.488 206.156 238.609 180.302 237.964 153.915C237.32 127.529 227.946 102.103 211.314 81.6277ZM119.013 244.947C101.61 244.947 84.5984 239.779 70.1286 230.097C55.6589 220.414 44.3813 206.652 37.7219 190.551C31.0625 174.45 29.3205 156.733 32.7162 139.64C36.1119 122.547 44.4927 106.847 56.7989 94.5241C69.105 82.2015 84.7837 73.81 101.852 70.411C118.921 67.012 136.613 68.7581 152.69 75.4285C168.768 82.0989 182.509 93.3939 192.176 107.885C201.844 122.377 207.003 139.413 207.001 156.841C206.999 180.209 197.728 202.619 181.227 219.142C164.726 235.665 142.348 244.947 119.013 244.947Z" fill="#DEDEDE"/>
<circle cx="119" cy="156" r="93" stroke="#D22856" stroke-width="16"/>
<path d="M115.906 188H68V177.922L85.2031 160.531C90.2969 155.312 93.625 151.703 95.1875 149.703C96.75 147.672 97.875 145.797 98.5625 144.078C99.25 142.359 99.5938 140.578 99.5938 138.734C99.5938 135.984 98.8281 133.938 97.2969 132.594C95.7969 131.25 93.7812 130.578 91.25 130.578C88.5938 130.578 86.0156 131.188 83.5156 132.406C81.0156 133.625 78.4062 135.359 75.6875 137.609L67.8125 128.281C71.1875 125.406 73.9844 123.375 76.2031 122.188C78.4219 121 80.8438 120.094 83.4688 119.469C86.0938 118.812 89.0312 118.484 92.2812 118.484C96.5625 118.484 100.344 119.266 103.625 120.828C106.906 122.391 109.453 124.578 111.266 127.391C113.078 130.203 113.984 133.422 113.984 137.047C113.984 140.203 113.422 143.172 112.297 145.953C111.203 148.703 109.484 151.531 107.141 154.438C104.828 157.344 100.734 161.484 94.8594 166.859L86.0469 175.156V175.812H115.906V188ZM172.297 173.797H164.047V188H149.891V173.797H120.641V163.719L150.688 119.469H164.047V162.547H172.297V173.797ZM149.891 162.547V150.922C149.891 148.984 149.969 146.172 150.125 142.484C150.281 138.797 150.406 136.656 150.5 136.062H150.125C148.969 138.625 147.578 141.125 145.953 143.562L133.391 162.547H149.891Z" fill="#D22856"/>
</svg>
